<svg width="250" height="100" viewBox="0 0 250 100" fill="none" xmlns="http://www.w3.org/2000/svg">
<path d="M75.3003 46.1207C75.3003 43.7145 75.8307 41.5653 76.8916 39.6731C77.9755 37.7575 79.44 36.2741 81.2849 35.2228C83.153 34.1482 85.2401 33.6109 87.5463 33.6109C90.2446 33.6109 92.6085 34.3118 94.638 35.7134C96.6675 37.1151 98.0858 39.054 98.893 41.5303H93.3234C92.7699 40.3622 91.9858 39.4862 90.9711 38.9022C89.9794 38.3182 88.8263 38.0261 87.5117 38.0261C86.105 38.0261 84.8481 38.3649 83.7411 39.0423C82.6571 39.6964 81.8038 40.6309 81.1812 41.8457C80.5815 43.0604 80.2817 44.4854 80.2817 46.1207C80.2817 47.7326 80.5815 49.1576 81.1812 50.3957C81.8038 51.6105 82.6571 52.5566 83.7411 53.2341C84.8481 53.8882 86.105 54.2153 87.5117 54.2153C88.8263 54.2153 89.9794 53.9232 90.9711 53.3392C91.9858 52.7318 92.7699 51.8441 93.3234 50.6761H98.893C98.0858 53.1757 96.6675 55.1263 94.638 56.528C92.6316 57.9063 90.2677 58.5954 87.5463 58.5954C85.2401 58.5954 83.153 58.0698 81.2849 57.0186C79.44 55.944 77.9755 54.4605 76.8916 52.5683C75.8307 50.6761 75.3003 48.5269 75.3003 46.1207Z" fill="white"/>
<path d="M101.784 48.6086C101.784 46.6463 102.165 44.9059 102.926 43.3875C103.71 41.869 104.759 40.701 106.074 39.8833C107.411 39.0657 108.899 38.6569 110.536 38.6569C111.966 38.6569 113.212 38.9489 114.272 39.5329C115.356 40.1169 116.221 40.8528 116.867 41.7405V38.9723H121.745V58.3852H116.867V55.5468C116.244 56.4579 115.379 57.2171 114.272 57.8245C113.188 58.4085 111.932 58.7006 110.502 58.7006C108.887 58.7006 107.411 58.2801 106.074 57.4391C104.759 56.5981 103.71 55.4183 102.926 53.8999C102.165 52.3581 101.784 50.5943 101.784 48.6086ZM116.867 48.6787C116.867 47.4873 116.636 46.4711 116.175 45.6301C115.714 44.7658 115.091 44.1117 114.307 43.6678C113.523 43.2006 112.681 42.967 111.782 42.967C110.882 42.967 110.052 43.1889 109.291 43.6328C108.53 44.0766 107.907 44.7307 107.423 45.5951C106.962 46.4361 106.731 47.4406 106.731 48.6086C106.731 49.7767 106.962 50.8046 107.423 51.6923C107.907 52.5566 108.53 53.2224 109.291 53.6896C110.075 54.1569 110.905 54.3905 111.782 54.3905C112.681 54.3905 113.523 54.1685 114.307 53.7247C115.091 53.2575 115.714 52.6034 116.175 51.7624C116.636 50.898 116.867 49.8701 116.867 48.6787Z" fill="white"/>
<path d="M137.095 38.6919C139.378 38.6919 141.223 39.4278 142.63 40.8995C144.037 42.3479 144.74 44.3803 144.74 46.9967V58.3852H139.897V47.6625C139.897 46.1207 139.516 44.941 138.755 44.1233C137.994 43.2823 136.956 42.8619 135.642 42.8619C134.304 42.8619 133.243 43.2823 132.459 44.1233C131.698 44.941 131.318 46.1207 131.318 47.6625V58.3852H126.475V38.9723H131.318V41.3901C131.963 40.5491 132.782 39.895 133.774 39.4278C134.789 38.9372 135.896 38.6919 137.095 38.6919Z" fill="white"/>
<path d="M148.1 48.6086C148.1 46.6463 148.481 44.9059 149.242 43.3875C150.026 41.869 151.087 40.701 152.424 39.8833C153.762 39.0657 155.249 38.6569 156.887 38.6569C158.132 38.6569 159.32 38.9372 160.45 39.4979C161.58 40.0352 162.479 40.7594 163.148 41.6704V32.4546H168.06V58.3852H163.148V55.5118C162.549 56.4696 161.707 57.2405 160.623 57.8245C159.539 58.4085 158.282 58.7006 156.852 58.7006C155.238 58.7006 153.762 58.2801 152.424 57.4391C151.087 56.5981 150.026 55.4183 149.242 53.8999C148.481 52.3581 148.1 50.5943 148.1 48.6086ZM163.183 48.6787C163.183 47.4873 162.952 46.4711 162.491 45.6301C162.03 44.7658 161.407 44.1117 160.623 43.6678C159.839 43.2006 158.997 42.967 158.098 42.967C157.198 42.967 156.368 43.1889 155.607 43.6328C154.846 44.0766 154.223 44.7307 153.739 45.5951C153.278 46.4361 153.047 47.4406 153.047 48.6086C153.047 49.7767 153.278 50.8046 153.739 51.6923C154.223 52.5566 154.846 53.2224 155.607 53.6896C156.391 54.1569 157.221 54.3905 158.098 54.3905C158.997 54.3905 159.839 54.1685 160.623 53.7247C161.407 53.2575 162.03 52.6034 162.491 51.7624C162.952 50.898 163.183 49.8701 163.183 48.6787Z" fill="white"/>
<path d="M177.634 32.4546V58.3852H172.791V32.4546H177.634Z" fill="white"/>
<path d="M200.234 48.2582C200.234 48.9591 200.188 49.5898 200.096 50.1505H186.086C186.201 51.5521 186.685 52.6501 187.538 53.4443C188.392 54.2386 189.441 54.6357 190.686 54.6357C192.485 54.6357 193.765 53.8532 194.526 52.288H199.75C199.196 54.1569 198.136 55.6987 196.567 56.9134C194.999 58.1048 193.073 58.7006 190.79 58.7006C188.945 58.7006 187.285 58.2917 185.809 57.4741C184.356 56.6331 183.214 55.4534 182.384 53.9349C181.577 52.4165 181.173 50.6644 181.173 48.6787C181.173 46.6697 181.577 44.9059 182.384 43.3875C183.191 41.869 184.321 40.701 185.774 39.8833C187.227 39.0657 188.899 38.6569 190.79 38.6569C192.612 38.6569 194.238 39.054 195.668 39.8483C197.121 40.6426 198.239 41.7756 199.023 43.2473C199.831 44.6957 200.234 46.366 200.234 48.2582ZM195.218 46.8566C195.195 45.5951 194.745 44.5906 193.869 43.843C192.993 43.0721 191.92 42.6866 190.652 42.6866C189.453 42.6866 188.438 43.0604 187.608 43.808C186.8 44.5322 186.305 45.5484 186.12 46.8566H195.218Z" fill="white"/>
<path d="M202.524 48.6086C202.524 46.6463 202.904 44.9059 203.665 43.3875C204.45 41.869 205.499 40.701 206.813 39.8833C208.151 39.0657 209.639 38.6569 211.276 38.6569C212.706 38.6569 213.951 38.9489 215.012 39.5329C216.096 40.1169 216.961 40.8528 217.607 41.7405V38.9723H222.484V58.3852H217.607V55.5468C216.984 56.4579 216.119 57.2171 215.012 57.8245C213.928 58.4085 212.671 58.7006 211.241 58.7006C209.627 58.7006 208.151 58.2801 206.813 57.4391C205.499 56.5981 204.45 55.4183 203.665 53.8999C202.904 52.3581 202.524 50.5943 202.524 48.6086ZM217.607 48.6787C217.607 47.4873 217.376 46.4711 216.915 45.6301C216.453 44.7658 215.831 44.1117 215.047 43.6678C214.263 43.2006 213.421 42.967 212.521 42.967C211.622 42.967 210.792 43.1889 210.031 43.6328C209.27 44.0766 208.647 44.7307 208.163 45.5951C207.701 46.4361 207.471 47.4406 207.471 48.6086C207.471 49.7767 207.701 50.8046 208.163 51.6923C208.647 52.5566 209.27 53.2224 210.031 53.6896C210.815 54.1569 211.645 54.3905 212.521 54.3905C213.421 54.3905 214.263 54.1685 215.047 53.7247C215.831 53.2575 216.453 52.6034 216.915 51.7624C217.376 50.898 217.607 49.8701 217.607 48.6787Z" fill="white"/>
<path d="M236.001 43.002H232.645V58.3852H227.733V43.002H225.554V38.9723H227.733V37.9911C227.733 35.6083 228.402 33.8562 229.74 32.7349C231.077 31.6136 233.095 31.088 235.793 31.158V35.2929C234.617 35.2696 233.799 35.4681 233.337 35.8886C232.876 36.3091 232.645 37.0683 232.645 38.1663V38.9723H236.001V43.002Z" fill="white"/>
<g clip-path="url(#clip0_718_160)">
<mask id="mask0_718_160" style="mask-type:alpha" maskUnits="userSpaceOnUse" x="0" y="16" width="64" height="64">
<circle cx="31.681" cy="47.681" r="31.681" fill="#F578A5"/>
</mask>
<g mask="url(#mask0_718_160)">
<circle cx="31.681" cy="47.681" r="31.681" fill="white"/>
<path d="M17.1082 78.9028V79.5959H17.8013H47.1865H47.8796V78.9028V66.5728C47.8796 65.4403 46.982 64.5116 45.8501 64.473L19.2809 63.5672C18.0931 63.5267 17.1082 64.4786 17.1082 65.6671V78.9028Z" fill="#272727" stroke="#272727" stroke-width="1.38604"/>
<g clip-path="url(#clip1_718_160)">
<path d="M23.2124 38.2461C29.6688 29.2691 26.8916 21.9621 26.8994 21.9535C26.7625 21.5876 26.9482 21.18 27.3141 21.0431C27.4987 20.9741 27.7037 20.9852 27.8798 21.0737C39.5324 26.6496 44.5468 33.8476 45.507 40.3553C45.8887 42.8837 45.6501 45.467 44.8117 47.8828C44.0434 50.1118 42.7637 52.13 41.0751 53.7753C37.8269 56.9123 33.2876 58.3583 28.8075 56.8923C27.6615 56.5184 26.5801 55.9699 25.6015 55.266C23.6383 53.8571 22.1492 51.8853 21.3312 49.6115C20.4632 47.1797 20.4356 44.5271 21.2528 42.0778C21.7042 40.7069 22.3652 39.4143 23.2124 38.2461Z" fill="#272727"/>
<path d="M27.0411 22.185C26.7573 21.9166 26.7448 21.4688 27.0133 21.1851C27.2817 20.9013 27.7294 20.8888 28.0132 21.1572C28.0341 21.177 28.0537 21.198 28.072 21.2201C28.098 21.2435 33.724 27.1408 34.5278 38.5388L34.5361 38.6457C34.7097 41.3097 34.6239 43.9843 34.2804 46.6318L38.1273 43.6836C38.4496 43.4627 38.8899 43.5448 39.1108 43.867C39.3107 44.1587 39.2646 44.5532 39.0027 44.7908L33.9752 48.632C32.8496 55.249 28.8819 64.6102 34.1344 70.4692C34.3874 70.767 34.3511 71.2134 34.0534 71.4663C33.77 71.7071 33.3486 71.6874 33.089 71.4212C26.7904 64.4006 31.3736 55.7034 32.6279 48.1824L32.6444 48.077C33.1544 45.0841 33.3292 42.0436 33.1655 39.012L28.6437 35.6989C28.3212 35.4784 28.2384 35.0382 28.4589 34.7157C28.6794 34.3932 29.1195 34.3104 29.4421 34.5309C29.4554 34.54 29.4685 34.5496 29.4812 34.5597L32.9848 37.1391C31.8919 27.2587 27.0616 22.2087 27.0411 22.185Z" fill="white"/>
</g>
</g>
</g>
<defs>
<clipPath id="clip0_718_160">
<rect width="63.362" height="63.362" fill="white" transform="translate(0 16)"/>
</clipPath>
<clipPath id="clip1_718_160">
<rect width="38.8832" height="38.8832" fill="white" transform="translate(3.73486 47.0383) rotate(-48)"/>
</clipPath>
</defs>
</svg>
